HIERARCHY
ROOT Hips
{
	OFFSET 0.00000 0.00000 0.00000
	CHANNELS 6 Xposition Yposition Zposition Zrotation Yrotation Xrotation 
	JOINT LHipJoint
	{
		OFFSET 0 0 0
		CHANNELS 3 Zrotation Yrotation Xrotation
		JOINT LeftHip
		{
			OFFSET 1.78158 -1.79992 1.25746
			CHANNELS 3 Zrotation Yrotation Xrotation
			JOINT LeftKnee
			{
				OFFSET 2.48433 -6.82566 0.00000
				CHANNELS 3 Zrotation Yrotation Xrotation
				JOINT LeftAnkle
				{
					OFFSET 2.69722 -7.41057 0.00000
					CHANNELS 3 Zrotation Yrotation Xrotation
					JOINT LeftToe
					{
						OFFSET 0.10733 -0.29489 1.75071
						CHANNELS 3 Zrotation Yrotation Xrotation
						End Site
						{
							OFFSET 0.00000 -0.00000 0.90224
						}
					}
				}
			}
		}
	}
	JOINT RHipJoint
	{
		OFFSET 0 0 0
		CHANNELS 3 Zrotation Yrotation Xrotation
		JOINT RightHip
		{
			OFFSET -1.91234 -1.79993 1.25746
			CHANNELS 3 Zrotation Yrotation Xrotation
			JOINT RightKnee
			{
				OFFSET -2.33122 -6.40498 0.00000
				CHANNELS 3 Zrotation Yrotation Xrotation
				JOINT RightAnkle
				{
					OFFSET -2.75667 -7.57390 0.00000
					CHANNELS 3 Zrotation Yrotation Xrotation
					JOINT RightToe
					{
						OFFSET -0.15946 -0.43811 1.78925
						CHANNELS 3 Zrotation Yrotation Xrotation
						End Site
						{
							OFFSET -0.00000 -0.00000 0.93158
						}
					}
				}
			}
		}
	}
	JOINT lowerback
	{
		OFFSET 0 0 0
		CHANNELS 3 Zrotation Yrotation Xrotation
		JOINT Chest
		{
			OFFSET -0.02267 2.03993 -0.26238
			CHANNELS 3 Zrotation Yrotation Xrotation
			JOINT Chest2
			{
				OFFSET 0.02263 2.06220 -0.00892
				CHANNELS 3 Zrotation Yrotation Xrotation
				JOINT lowerneck
				{
					OFFSET 0 0 0
					CHANNELS 3 Zrotation Yrotation Xrotation
					JOINT Neck
					{
						OFFSET -0.06177 1.95978 0.28606
						CHANNELS 3 Zrotation Yrotation Xrotation
						JOINT Head
						{
							OFFSET 0.08482 1.96576 -0.43252
							CHANNELS 3 Zrotation Yrotation Xrotation
							End Site
							{
								OFFSET 0.02787 2.02739 -0.18071
							}
						}
					}
				}
				JOINT LeftCollar
				{
					OFFSET 0 0 0
					CHANNELS 3 Zrotation Yrotation Xrotation
					JOINT LeftShoulder
					{
						OFFSET 3.80978 1.64906 0.29973
CHANNELS 3 Zrotation Xrotation Yrotation
						JOINT LeftElbow
						{
OFFSET 0 -4.930420 0.000000
CHANNELS 3 Zrotation Xrotation Yrotation
							JOINT LeftWrist
							{
OFFSET 0 -3.681770 0.000000
CHANNELS 3 Zrotation Xrotation Yrotation
								JOINT lhand
								{
									OFFSET 0 0 0
CHANNELS 3 Zrotation Xrotation Yrotation
									JOINT LFingers
									{
OFFSET 0 -0.721480 0.000000
CHANNELS 3 Zrotation Xrotation Yrotation
										End Site
										{
OFFSET 0 -0.581680 0.000000
										}
									}
								}
								JOINT LThumb
								{
OFFSET 0 0.000000 0.000000
CHANNELS 3 Zrotation Xrotation Yrotation
									End Site
									{
OFFSET 0 -0.590560 0.590560
									}
								}
							}
						}
					}
				}
				JOINT RightCollar
				{
					OFFSET 0 0 0
					CHANNELS 3 Zrotation Yrotation Xrotation
					JOINT RightShoulder
					{
						OFFSET -3.49270 1.85636 0.09297
CHANNELS 3 Zrotation Xrotation Yrotation
						JOINT RightElbow
						{
OFFSET 0 -5.079050 -0.000000
CHANNELS 3 Zrotation Xrotation Yrotation
							JOINT RightWrist
							{
OFFSET 0 -3.543940 0.000000
CHANNELS 3 Zrotation Xrotation Yrotation
								JOINT rhand
								{
									OFFSET 0 0 0
CHANNELS 3 Zrotation Xrotation Yrotation
									JOINT RFingers
									{
OFFSET 0 -0.681160 0.000000
CHANNELS 3 Zrotation Xrotation Yrotation
										End Site
										{
OFFSET 0 -0.549170 0.000000
										}
									}
								}
								JOINT RThumb
								{
OFFSET 0 0.000000 0.000000
CHANNELS 3 Zrotation Xrotation Yrotation
									End Site
									{
OFFSET 0 -0.557550 0.557550
									}
								}
							}
						}
					}
				}
			}
		}
	}
}
MOTION
Frames: 10
Frame Time: 0.008333333333333333
-10.019896 17.958573 -16.624896 200.627280 88.049804 205.474521 0.000000 0.000000 0.000000 -14.286024 -9.411599 -9.341933 2.063421 8.997034 25.785972 1.436403 2.114785 -23.491921 3.258938 -11.102899 -32.627601 0.000000 0.000000 0.000000 14.395284 -8.169865 3.311400 0.000000 0.000000 0.000000 0.301344 -13.142804 -14.306329 -0.041004 1.303976 -3.585658 0.787658 0.178534 7.712271 1.924810 0.468476 -2.508959 1.511155 0.250110 -6.975093 -6.962073 -4.769355 -24.595319 3.382310 -4.820540 32.175522 1.695069 -2.200225 15.813337 0.000000 0.000000 0.000000 -3.291068 -19.965834 -49.773170 93.862402 -59.936825 63.344103 37.876453 -14.763546 -24.725022 0.000000 0.000000 0.000000 -7.125000 0.000000 0.000000 10.023540 59.958495 -3.681222 0.000000 0.000000 0.000000 -8.127360 -13.728209 43.281401 -97.453371 -59.786016 -66.450101 -26.304403 20.421651 32.860678 0.000000 0.000000 0.000000 7.125000 0.000000 0.000000 7.802618 65.597286 -3.891530
-10.027087 17.960118 -16.629888 199.395841 88.141211 204.255563 0.000000 0.000000 0.000000 -14.383671 -9.405596 -9.328798 2.054863 8.979501 25.731116 1.433610 2.170354 -23.493764 3.246814 -11.084296 -32.564603 0.000000 0.000000 0.000000 14.300251 -8.097595 3.300999 0.000000 0.000000 0.000000 0.296233 -13.114811 -14.344188 -0.033813 1.185527 -3.259374 0.746174 0.207002 7.743414 1.903831 0.500629 -2.498677 1.508064 0.266929 -6.982878 -7.007420 -4.778864 -24.585156 3.419931 -4.833021 32.055766 1.714206 -2.207476 15.757411 0.000000 0.000000 0.000000 -3.406605 -20.886501 -49.716709 92.134405 -59.979676 61.848309 37.775358 -15.141239 -24.747666 0.000000 0.000000 0.000000 -7.125000 0.000000 0.000000 9.893621 59.957484 -3.632666 0.000000 0.000000 0.000000 -8.315879 -14.446628 43.157604 -96.309714 -59.847647 -65.461503 -25.937408 20.092752 32.754235 0.000000 0.000000 0.000000 7.125000 0.000000 0.000000 8.186254 65.384459 -4.044390
-10.035104 17.961760 -16.633278 197.869516 88.234464 202.743661 0.000000 0.000000 0.000000 -14.477335 -9.380161 -9.321979 2.044993 8.959151 25.667564 1.432177 2.181132 -23.487396 3.204229 -11.018231 -32.341676 0.000000 0.000000 0.000000 14.206093 -8.022168 3.286032 0.000000 0.000000 0.000000 0.291608 -13.089928 -14.379326 -0.027108 1.057362 -2.906662 0.677194 0.237316 7.773293 1.881393 0.532005 -2.482760 1.518965 0.284477 -6.984203 -7.033432 -4.787207 -24.588207 3.447010 -4.846668 31.962292 1.725619 -2.213852 15.716254 0.000000 0.000000 0.000000 -3.487940 -21.837482 -49.674142 90.239678 -59.989832 60.207597 37.673778 -15.555562 -24.763508 0.000000 0.000000 0.000000 -7.125000 0.000000 0.000000 9.763799 59.948507 -3.582360 0.000000 0.000000 0.000000 -8.451737 -15.174229 43.016754 -95.122819 -59.896745 -64.434817 -25.643964 19.875783 32.580118 0.000000 0.000000 0.000000 7.125000 0.000000 0.000000 8.424584 65.125382 -4.111942
-10.043402 17.963456 -16.636140 196.281169 88.325845 201.171614 0.000000 0.000000 0.000000 -14.567024 -9.350385 -9.319632 2.034934 8.938388 25.602750 1.431256 2.176976 -23.478601 3.151515 -10.936090 -32.064900 0.000000 0.000000 0.000000 14.114960 -7.946796 3.267392 0.000000 0.000000 0.000000 0.287331 -13.066957 -14.411901 -0.020775 0.929246 -2.554178 0.601126 0.267089 7.802193 1.859336 0.561861 -2.465448 1.534450 0.301587 -6.983523 -7.051351 -4.794064 -24.596173 3.468737 -4.859077 31.877950 1.733720 -2.219336 15.680046 0.000000 0.000000 0.000000 -3.555843 -22.794538 -49.636987 88.299176 -59.985961 58.527208 37.575182 -15.974661 -24.776012 0.000000 0.000000 0.000000 -7.125000 0.000000 0.000000 9.638070 59.936499 -3.532915 0.000000 0.000000 0.000000 -8.564068 -15.908391 42.871294 -93.914648 -59.940735 -63.389470 -25.371253 19.694795 32.392152 0.000000 0.000000 0.000000 7.125000 0.000000 0.000000 8.625843 64.858612 -4.158203
-10.052317 17.965358 -16.637923 194.717503 88.402572 199.633504 0.000000 0.000000 0.000000 -14.636916 -9.320610 -9.336927 2.025544 8.919013 25.542308 1.431672 2.141198 -23.466002 3.077463 -10.818830 -31.671814 0.000000 0.000000 0.000000 14.041977 -7.876309 3.231733 0.000000 0.000000 0.000000 0.284597 -13.051801 -14.431929 -0.016139 0.815374 -2.241028 0.518990 0.290743 7.826620 1.841804 0.583078 -2.447262 1.559292 0.314840 -6.979244 -7.045051 -4.793053 -24.616736 3.471233 -4.861870 31.814535 1.731639 -2.220347 15.654431 0.000000 0.000000 0.000000 -3.586569 -23.747120 -49.614640 86.303912 -59.938950 56.799924 37.496434 -16.371907 -24.776844 0.000000 0.000000 0.000000 -7.125000 0.000000 0.000000 9.538461 59.916471 -3.491490 0.000000 0.000000 0.000000 -8.600916 -16.671503 42.720692 -92.631919 -59.969916 -62.278976 -25.126154 19.584251 32.212309 0.000000 0.000000 0.000000 7.125000 0.000000 0.000000 8.797483 64.608758 -4.190118
-10.061501 17.967368 -16.639491 193.352197 88.465780 198.299937 0.000000 0.000000 0.000000 -14.692429 -9.297419 -9.368951 2.017336 8.902084 25.489471 1.432034 2.099022 -23.450445 3.001582 -10.697027 -31.265316 0.000000 0.000000 0.000000 13.983105 -7.812542 3.184032 0.000000 0.000000 0.000000 0.283019 -13.042264 -14.441906 -0.012498 0.719752 -1.978087 0.444031 0.307597 7.850160 1.829270 0.596393 -2.430258 1.586447 0.324035 -6.975583 -7.027704 -4.785135 -24.638832 3.463112 -4.855175 31.750825 1.725097 -2.217621 15.627606 0.000000 0.000000 0.000000 -3.598831 -24.683038 -49.598422 84.340310 -59.870679 55.100970 37.435050 -16.747436 -24.765151 0.000000 0.000000 0.000000 -7.125000 0.000000 0.000000 9.461994 59.886685 -3.456463 0.000000 0.000000 0.000000 -8.602393 -17.453295 42.572994 -91.303873 -59.989529 -61.129106 -24.870975 19.485345 32.071467 0.000000 0.000000 0.000000 7.125000 0.000000 0.000000 9.008339 64.395942 -4.246842
-10.071010 17.969507 -16.640799 192.227142 88.512613 197.214107 0.000000 0.000000 0.000000 -14.730525 -9.282205 -9.418815 2.010561 8.888117 25.445848 1.432332 2.049099 -23.431308 2.923488 -10.569723 -30.842573 0.000000 0.000000 0.000000 13.941324 -7.756913 3.121747 0.000000 0.000000 0.000000 0.282841 -13.039530 -14.439707 -0.010061 0.646234 -1.775958 0.377764 0.316215 7.872625 1.822792 0.600138 -2.414687 1.616401 0.328314 -6.972671 -6.996977 -4.768851 -24.662783 3.442132 -4.836989 31.686757 1.713152 -2.210370 15.599316 0.000000 0.000000 0.000000 -3.588727 -25.598772 -49.589626 82.415057 -59.776657 53.436329 37.394695 -17.096661 -24.738288 0.000000 0.000000 0.000000 -7.125000 0.000000 0.000000 9.413557 59.845083 -3.429183 0.000000 0.000000 0.000000 -8.561028 -18.257713 42.428811 -89.920941 -59.997552 -59.931543 -24.603589 19.400535 31.977861 0.000000 0.000000 0.000000 7.125000 0.000000 0.000000 9.266692 64.227986 -4.333613
-10.080931 17.971738 -16.642472 191.554484 88.532915 196.589823 0.000000 0.000000 0.000000 -14.745933 -9.278426 -9.496078 2.006347 8.879319 25.418509 1.430936 2.000731 -23.399820 2.856967 -10.459252 -30.477741 0.000000 0.000000 0.000000 13.921591 -7.717706 3.039701 0.000000 0.000000 0.000000 0.284767 -13.046631 -14.418387 -0.008997 0.612375 -1.682834 0.332996 0.310469 7.899985 1.826286 0.587872 -2.401631 1.646903 0.324223 -6.974699 -6.952894 -4.738523 -24.678684 3.408253 -4.800002 31.596021 1.697043 -2.196029 15.554513 0.000000 0.000000 0.000000 -3.553602 -26.474802 -49.586960 80.618571 -59.656195 51.885267 37.387138 -17.424249 -24.681417 0.000000 0.000000 0.000000 -7.125000 0.000000 0.000000 9.409078 59.777818 -3.412379 0.000000 0.000000 0.000000 -8.484258 -19.085962 42.291352 -88.478131 -59.985586 -58.682154 -24.315161 19.316503 31.962018 0.000000 0.000000 0.000000 7.125000 0.000000 0.000000 9.604042 64.132945 -4.471479
-10.091032 17.974002 -16.644343 191.048267 88.542642 196.135287 0.000000 0.000000 0.000000 -14.753029 -9.278416 -9.584290 2.003133 8.872565 25.397576 1.428698 1.953693 -23.362318 2.796352 -10.357804 -30.143458 0.000000 0.000000 0.000000 13.909859 -7.685324 2.950116 0.000000 0.000000 0.000000 0.287540 -13.057648 -14.389420 -0.008462 0.594406 -1.633396 0.297074 0.298956 7.930078 1.833603 0.569200 -2.389370 1.677327 0.316751 -6.978920 -6.903856 -4.702466 -24.690441 3.370100 -4.755625 31.491497 1.679653 -2.178857 15.501523 0.000000 0.000000 0.000000 -3.509468 -27.334529 -49.586350 78.879629 -59.526212 50.384875 37.392693 -17.745890 -24.612455 0.000000 0.000000 0.000000 -7.125000 0.000000 0.000000 9.422118 59.700157 -3.399662 0.000000 0.000000 0.000000 -8.396214 -19.921970 42.155895 -87.015839 -59.965194 -57.415966 -24.023282 19.234292 31.973499 0.000000 0.000000 0.000000 7.125000 0.000000 0.000000 9.964403 64.064584 -4.625377
-10.101729 17.976320 -16.647137 190.867593 88.524753 196.012262 0.000000 0.000000 0.000000 -14.744173 -9.282041 -9.701313 2.002360 8.871020 25.392702 1.422933 1.915716 -23.300508 2.761346 -10.298134 -29.947747 0.000000 0.000000 0.000000 13.912830 -7.672962 2.843494 0.000000 0.000000 0.000000 0.292592 -13.078865 -14.340269 -0.009175 0.618595 -1.699961 0.286435 0.272033 7.973464 1.849709 0.533600 -2.377543 1.705201 0.300110 -6.990628 -6.844780 -4.650404 -24.684022 3.327606 -4.692745 31.326097 1.661882 -2.154252 15.414514 0.000000 0.000000 0.000000 -3.449382 -28.147921 -49.588074 77.339973 -59.379354 49.059355 37.432810 -18.073065 -24.510885 0.000000 0.000000 0.000000 -7.125000 0.000000 0.000000 9.480897 59.594011 -3.396928 0.000000 0.000000 0.000000 -8.301063 -20.764543 42.020330 -85.537161 -59.919194 -56.136267 -23.761245 19.168738 32.027464 0.000000 0.000000 0.000000 7.125000 0.000000 0.000000 10.318145 64.047170 -4.787033
